<svg width="1200" height="700" viewBox="0 0 1200 700" xmlns="http://www.w3.org/2000/svg">
  <defs>
    <marker id="arrow" viewBox="0 0 10 10" refX="8" refY="5" markerWidth="6" markerHeight="6" orient="auto-start-reverse">
      <path d="M2 1L8 5L2 9" fill="none" stroke="context-stroke" stroke-width="1.5" stroke-linecap="round" stroke-linejoin="round"/>
    </marker>
    <style>
      text { font-family: Arial, sans-serif; }
      .title { font-size: 15px; font-weight: 700; fill: #1A1A1A; }
      .sub { font-size: 12px; fill: #555555; }
      .label { font-size: 11px; fill: #888780; }
      .section-title { font-size: 12px; fill: #555555; }
    </style>
  </defs>

  <rect width="1200" height="700" fill="#F8F9FA" rx="0"/>

  <rect x="20" y="20" width="1160" height="620" rx="16" fill="#F1EFE8" stroke="#B4B2A9" stroke-width="1"/>
  <text class="title" x="44" y="50">AWS Cloud</text>

  <rect x="40" y="65" width="1120" height="200" rx="10" fill="#E1F5EE" stroke="#5DCAA5" stroke-width="0.8"/>
  <text class="section-title" x="60" y="88">Compute &amp; storage layer</text>

  <rect x="60" y="100" width="140" height="64" rx="8" fill="#E6F1FB" stroke="#378ADD" stroke-width="1"/>
  <text class="title" x="130" y="126" text-anchor="middle">S3 ingest</text>
  <text class="sub" x="130" y="148" text-anchor="middle">Video upload</text>

  <line x1="200" y1="132" x2="240" y2="132" stroke="#1D9E75" stroke-width="1.5" marker-end="url(#arrow)"/>

  <rect x="240" y="100" width="140" height="64" rx="8" fill="#E1F5EE" stroke="#1D9E75" stroke-width="1"/>
  <text class="title" x="310" y="126" text-anchor="middle">Lambda</text>
  <text class="sub" x="310" y="148" text-anchor="middle">Trigger &amp; orchestrate</text>

  <line x1="380" y1="132" x2="420" y2="132" stroke="#1D9E75" stroke-width="1.5" marker-end="url(#arrow)"/>

  <rect x="420" y="100" width="160" height="64" rx="8" fill="#E1F5EE" stroke="#1D9E75" stroke-width="1"/>
  <text class="title" x="500" y="126" text-anchor="middle">MediaConvert</text>
  <text class="sub" x="500" y="148" text-anchor="middle">1080p &amp; 720p transcode</text>

  <line x1="580" y1="132" x2="620" y2="132" stroke="#1D9E75" stroke-width="1.5" marker-end="url(#arrow)"/>

  <rect x="620" y="100" width="140" height="64" rx="8" fill="#E6F1FB" stroke="#378ADD" stroke-width="1"/>
  <text class="title" x="690" y="126" text-anchor="middle">S3 output</text>
  <text class="sub" x="690" y="148" text-anchor="middle">Transcoded video</text>

  <line x1="690" y1="164" x2="690" y2="195" stroke="#1D9E75" stroke-width="1.5" marker-end="url(#arrow)"/>
  <line x1="690" y1="195" x2="830" y2="195" stroke="#1D9E75" stroke-width="1.5" marker-end="url(#arrow)"/>

  <rect x="830" y="175" width="160" height="52" rx="8" fill="#E1F5EE" stroke="#1D9E75" stroke-width="1"/>
  <text class="title" x="910" y="196" text-anchor="middle">CloudFront CDN</text>
  <text class="sub" x="910" y="214" text-anchor="middle">Global delivery</text>

  <line x1="310" y1="164" x2="310" y2="195" stroke="#378ADD" stroke-width="1.5" marker-end="url(#arrow)"/>

  <rect x="240" y="195" width="140" height="52" rx="8" fill="#E6F1FB" stroke="#378ADD" stroke-width="1"/>
  <text class="title" x="310" y="216" text-anchor="middle">DynamoDB</text>
  <text class="sub" x="310" y="234" text-anchor="middle">Job status tracking</text>

  <rect x="40" y="285" width="1120" height="120" rx="10" fill="#FAECE7" stroke="#F0997B" stroke-width="0.8"/>
  <text class="section-title" x="60" y="308">Security &amp; observability layer</text>

  <rect x="60" y="318" width="130" height="52" rx="8" fill="#FAECE7" stroke="#D85A30" stroke-width="1"/>
  <text class="title" x="125" y="338" text-anchor="middle">WAF</text>
  <text class="sub" x="125" y="356" text-anchor="middle">SQLi &amp; DDoS</text>

  <rect x="210" y="318" width="130" height="52" rx="8" fill="#FAECE7" stroke="#D85A30" stroke-width="1"/>
  <text class="title" x="275" y="338" text-anchor="middle">GuardDuty</text>
  <text class="sub" x="275" y="356" text-anchor="middle">Threat detection</text>

  <rect x="360" y="318" width="130" height="52" rx="8" fill="#FAECE7" stroke="#D85A30" stroke-width="1"/>
  <text class="title" x="425" y="338" text-anchor="middle">KMS</text>
  <text class="sub" x="425" y="356" text-anchor="middle">Encryption at rest</text>

  <rect x="510" y="318" width="130" height="52" rx="8" fill="#FAECE7" stroke="#D85A30" stroke-width="1"/>
  <text class="title" x="575" y="338" text-anchor="middle">CloudTrail</text>
  <text class="sub" x="575" y="356" text-anchor="middle">Full audit logging</text>

  <rect x="660" y="318" width="130" height="52" rx="8" fill="#FAECE7" stroke="#D85A30" stroke-width="1"/>
  <text class="title" x="725" y="338" text-anchor="middle">X-Ray</text>
  <text class="sub" x="725" y="356" text-anchor="middle">Distributed tracing</text>

  <rect x="810" y="318" width="130" height="52" rx="8" fill="#FAECE7" stroke="#D85A30" stroke-width="1"/>
  <text class="title" x="875" y="338" text-anchor="middle">VPC Endpoints</text>
  <text class="sub" x="875" y="356" text-anchor="middle">No public Lambda</text>

  <rect x="960" y="318" width="130" height="52" rx="8" fill="#FAECE7" stroke="#D85A30" stroke-width="1"/>
  <text class="title" x="1025" y="338" text-anchor="middle">Secrets Manager</text>
  <text class="sub" x="1025" y="356" text-anchor="middle">No hardcoded creds</text>

  <rect x="40" y="425" width="1120" height="80" rx="10" fill="#E6F1FB" stroke="#378ADD" stroke-width="0.8"/>
  <text class="section-title" x="60" y="448">Frontend layer</text>

  <rect x="300" y="455" width="180" height="36" rx="8" fill="#E6F1FB" stroke="#378ADD" stroke-width="1"/>
  <text class="title" x="390" y="478" text-anchor="middle">API Gateway — REST</text>

  <line x1="480" y1="473" x2="540" y2="473" stroke="#378ADD" stroke-width="1.5" marker-end="url(#arrow)"/>

  <rect x="540" y="455" width="180" height="36" rx="8" fill="#E6F1FB" stroke="#378ADD" stroke-width="1"/>
  <text class="title" x="630" y="478" text-anchor="middle">React frontend</text>

  <rect x="490" y="540" width="220" height="52" rx="8" fill="#F1EFE8" stroke="#B4B2A9" stroke-width="1"/>
  <text class="title" x="600" y="560" text-anchor="middle">User / browser</text>
  <text class="sub" x="600" y="578" text-anchor="middle">Drag-and-drop upload</text>

  <line x1="600" y1="540" x2="600" y2="491" stroke="#888780" stroke-width="1.2" marker-end="url(#arrow)"/>

  <line x1="550" y1="491" x2="130" y2="491" stroke="#888780" stroke-width="1" stroke-dasharray="6 3"/>
  <line x1="130" y1="491" x2="130" y2="164" stroke="#888780" stroke-width="1" stroke-dasharray="6 3" marker-end="url(#arrow)"/>

  <rect x="20" y="640" width="1160" height="46" rx="8" fill="#F1EFE8" stroke="none"/>
  <rect x="40" y="653" width="12" height="12" rx="2" fill="#5DCAA5" stroke="#0F6E56" stroke-width="0.5"/>
  <text class="label" x="57" y="663">Compute / storage</text>
  <rect x="180" y="653" width="12" height="12" rx="2" fill="#85B7EB" stroke="#185FA5" stroke-width="0.5"/>
  <text class="label" x="197" y="663">API / frontend</text>
  <rect x="310" y="653" width="12" height="12" rx="2" fill="#F0997B" stroke="#993C1D" stroke-width="0.5"/>
  <text class="label" x="327" y="663">Security</text>
  <rect x="400" y="653" width="12" height="12" rx="2" fill="#D3D1C7" stroke="#888780" stroke-width="0.5"/>
  <text class="label" x="417" y="663">User / external</text>

  <text class="sub" x="900" y="663" text-anchor="middle">Serverless Media Factory — AWS Architecture</text>
  <text class="label" x="1140" y="663" text-anchor="end">github.com/Andrewleshan</text>
</svg>
